<svg xmlns="http://www.w3.org/2000/svg" xmlns:xlink="http://www.w3.org/1999/xlink" width="422" zoomAndPan="magnify" viewBox="0 0 316.5 135.750003" height="181" preserveAspectRatio="xMidYMid meet" version="1.0"><defs><g/><clipPath id="fa8da26640"><path d="M 46.1875 92.175781 L 138.90625 92.175781 L 138.90625 102.488281 L 46.1875 102.488281 Z M 46.1875 92.175781 " clip-rule="nonzero"/></clipPath><clipPath id="c7f86115c5"><path d="M 150.976562 32.824219 L 243.699219 32.824219 L 243.699219 43.136719 L 150.976562 43.136719 Z M 150.976562 32.824219 " clip-rule="nonzero"/></clipPath></defs><g clip-path="url(#fa8da26640)"><path fill="#000000" d="M 46.1875 92.175781 L 138.902344 92.175781 L 138.902344 102.488281 L 46.1875 102.488281 Z M 46.1875 92.175781 " fill-opacity="1" fill-rule="nonzero"/></g><g clip-path="url(#c7f86115c5)"><path fill="#000000" d="M 150.976562 32.824219 L 243.695312 32.824219 L 243.695312 43.136719 L 150.976562 43.136719 Z M 150.976562 32.824219 " fill-opacity="1" fill-rule="nonzero"/></g><g fill="#000000" fill-opacity="1"><g transform="translate(18.017359, 73.363157)"><g><path d="M 2.21875 0 L 2.21875 -8.921875 L 8.375 -8.921875 C 10.9375 -8.921875 12.722656 -9.53125 13.734375 -10.75 C 14.753906 -11.96875 15.265625 -13.734375 15.265625 -16.046875 L 15.265625 -41.90625 L 24.84375 -41.90625 L 24.84375 -15.328125 C 24.84375 -10.492188 23.503906 -6.726562 20.828125 -4.03125 C 18.160156 -1.34375 14.210938 0 8.984375 0 Z M 2.21875 0 "/></g></g></g><g fill="#000000" fill-opacity="1"><g transform="translate(47.770898, 73.363157)"><g><path d="M 24.90625 0.84375 C 20.550781 0.84375 16.6875 -0.0820312 13.3125 -1.9375 C 9.945312 -3.800781 7.316406 -6.367188 5.421875 -9.640625 C 3.523438 -12.910156 2.578125 -16.679688 2.578125 -20.953125 C 2.578125 -25.222656 3.523438 -28.992188 5.421875 -32.265625 C 7.316406 -35.546875 9.945312 -38.113281 13.3125 -39.96875 C 16.6875 -41.820312 20.550781 -42.75 24.90625 -42.75 C 29.300781 -42.75 33.171875 -41.820312 36.515625 -39.96875 C 39.867188 -38.113281 42.503906 -35.546875 44.421875 -32.265625 C 46.335938 -28.992188 47.296875 -25.222656 47.296875 -20.953125 C 47.296875 -16.679688 46.335938 -12.910156 44.421875 -9.640625 C 42.503906 -6.367188 39.867188 -3.800781 36.515625 -1.9375 C 33.171875 -0.0820312 29.300781 0.84375 24.90625 0.84375 Z M 12.28125 -20.953125 C 12.28125 -18.441406 12.816406 -16.226562 13.890625 -14.3125 C 14.960938 -12.394531 16.445312 -10.894531 18.34375 -9.8125 C 20.25 -8.738281 22.4375 -8.203125 24.90625 -8.203125 C 27.425781 -8.203125 29.632812 -8.738281 31.53125 -9.8125 C 33.425781 -10.894531 34.898438 -12.394531 35.953125 -14.3125 C 37.015625 -16.226562 37.546875 -18.441406 37.546875 -20.953125 C 37.546875 -23.472656 37.015625 -25.6875 35.953125 -27.59375 C 34.898438 -29.507812 33.425781 -31.003906 31.53125 -32.078125 C 29.632812 -33.160156 27.425781 -33.703125 24.90625 -33.703125 C 22.4375 -33.703125 20.25 -33.160156 18.34375 -32.078125 C 16.445312 -31.003906 14.960938 -29.507812 13.890625 -27.59375 C 12.816406 -25.6875 12.28125 -23.472656 12.28125 -20.953125 Z M 12.28125 -20.953125 "/></g></g></g><g fill="#000000" fill-opacity="1"><g transform="translate(97.6395, 73.363157)"><g><path d="M 5.03125 0 L 5.03125 -41.90625 L 23.765625 -41.90625 C 28.035156 -41.90625 31.425781 -40.890625 33.9375 -38.859375 C 36.457031 -36.828125 37.71875 -34.09375 37.71875 -30.65625 C 37.71875 -28.695312 37.28125 -26.921875 36.40625 -25.328125 C 35.53125 -23.734375 34.289062 -22.476562 32.6875 -21.5625 C 34.6875 -20.675781 36.234375 -19.375 37.328125 -17.65625 C 38.429688 -15.945312 38.984375 -13.972656 38.984375 -11.734375 C 38.984375 -9.378906 38.382812 -7.320312 37.1875 -5.5625 C 35.988281 -3.8125 34.320312 -2.445312 32.1875 -1.46875 C 30.050781 -0.488281 27.566406 0 24.734375 0 Z M 14.4375 -7.546875 L 23.296875 -7.546875 C 25.171875 -7.546875 26.625 -7.984375 27.65625 -8.859375 C 28.695312 -9.734375 29.21875 -10.972656 29.21875 -12.578125 C 29.21875 -14.171875 28.695312 -15.40625 27.65625 -16.28125 C 26.625 -17.164062 25.171875 -17.609375 23.296875 -17.609375 L 14.4375 -17.609375 Z M 14.4375 -24.84375 L 22.328125 -24.84375 C 24.171875 -24.84375 25.578125 -25.257812 26.546875 -26.09375 C 27.523438 -26.9375 28.015625 -28.117188 28.015625 -29.640625 C 28.015625 -31.148438 27.523438 -32.316406 26.546875 -33.140625 C 25.578125 -33.960938 24.171875 -34.375 22.328125 -34.375 L 14.4375 -34.375 Z M 14.4375 -24.84375 "/></g></g></g><g fill="#000000" fill-opacity="1"><g transform="translate(150.239897, 101.530299)"><g><path d="M 5.03125 0 L 5.03125 -41.90625 L 14.546875 -41.90625 L 14.546875 -8.921875 L 32.875 -8.921875 L 32.875 0 Z M 5.03125 0 "/></g></g></g><g fill="#000000" fill-opacity="1"><g transform="translate(184.722866, 101.530299)"><g><path d="M 5.03125 0 L 5.03125 -41.90625 L 32.578125 -41.90625 L 32.578125 -33.890625 L 14.484375 -33.890625 L 14.484375 -25.203125 L 30.953125 -25.203125 L 30.953125 -17.25 L 14.484375 -17.25 L 14.484375 -8.078125 L 33.234375 -8.078125 L 33.234375 0 Z M 5.03125 0 "/></g></g></g><g fill="#000000" fill-opacity="1"><g transform="translate(221.001825, 101.530299)"><g><path d="M 19.640625 0.84375 C 16.128906 0.84375 13.101562 0.265625 10.5625 -0.890625 C 8.03125 -2.054688 6.078125 -3.707031 4.703125 -5.84375 C 3.328125 -7.976562 2.640625 -10.484375 2.640625 -13.359375 L 11.96875 -13.359375 C 11.96875 -11.359375 12.65625 -9.796875 14.03125 -8.671875 C 15.414062 -7.554688 17.265625 -7 19.578125 -7 C 21.578125 -7 23.15625 -7.390625 24.3125 -8.171875 C 25.46875 -8.953125 26.046875 -10.039062 26.046875 -11.4375 C 26.046875 -12.914062 25.347656 -14.113281 23.953125 -15.03125 C 22.554688 -15.945312 20.378906 -16.722656 17.421875 -17.359375 C 12.515625 -18.398438 8.882812 -19.976562 6.53125 -22.09375 C 4.175781 -24.207031 3 -26.960938 3 -30.359375 C 3 -34.191406 4.394531 -37.210938 7.1875 -39.421875 C 9.976562 -41.640625 13.789062 -42.75 18.625 -42.75 C 21.9375 -42.75 24.804688 -42.179688 27.234375 -41.046875 C 29.671875 -39.910156 31.554688 -38.3125 32.890625 -36.25 C 34.234375 -34.195312 34.90625 -31.753906 34.90625 -28.921875 L 25.75 -28.921875 C 25.75 -30.796875 25.128906 -32.269531 23.890625 -33.34375 C 22.648438 -34.425781 20.929688 -34.96875 18.734375 -34.96875 C 16.742188 -34.96875 15.171875 -34.578125 14.015625 -33.796875 C 12.859375 -33.015625 12.28125 -31.925781 12.28125 -30.53125 C 12.28125 -29.257812 12.914062 -28.179688 14.1875 -27.296875 C 15.46875 -26.421875 17.703125 -25.601562 20.890625 -24.84375 C 26.117188 -23.601562 29.890625 -21.945312 32.203125 -19.875 C 34.523438 -17.800781 35.6875 -15.109375 35.6875 -11.796875 C 35.6875 -7.847656 34.257812 -4.753906 31.40625 -2.515625 C 28.550781 -0.273438 24.628906 0.84375 19.640625 0.84375 Z M 19.640625 0.84375 "/></g></g></g><g fill="#000000" fill-opacity="1"><g transform="translate(259.376103, 101.530299)"><g><path d="M 19.640625 0.84375 C 16.128906 0.84375 13.101562 0.265625 10.5625 -0.890625 C 8.03125 -2.054688 6.078125 -3.707031 4.703125 -5.84375 C 3.328125 -7.976562 2.640625 -10.484375 2.640625 -13.359375 L 11.96875 -13.359375 C 11.96875 -11.359375 12.65625 -9.796875 14.03125 -8.671875 C 15.414062 -7.554688 17.265625 -7 19.578125 -7 C 21.578125 -7 23.15625 -7.390625 24.3125 -8.171875 C 25.46875 -8.953125 26.046875 -10.039062 26.046875 -11.4375 C 26.046875 -12.914062 25.347656 -14.113281 23.953125 -15.03125 C 22.554688 -15.945312 20.378906 -16.722656 17.421875 -17.359375 C 12.515625 -18.398438 8.882812 -19.976562 6.53125 -22.09375 C 4.175781 -24.207031 3 -26.960938 3 -30.359375 C 3 -34.191406 4.394531 -37.210938 7.1875 -39.421875 C 9.976562 -41.640625 13.789062 -42.75 18.625 -42.75 C 21.9375 -42.75 24.804688 -42.179688 27.234375 -41.046875 C 29.671875 -39.910156 31.554688 -38.3125 32.890625 -36.25 C 34.234375 -34.195312 34.90625 -31.753906 34.90625 -28.921875 L 25.75 -28.921875 C 25.75 -30.796875 25.128906 -32.269531 23.890625 -33.34375 C 22.648438 -34.425781 20.929688 -34.96875 18.734375 -34.96875 C 16.742188 -34.96875 15.171875 -34.578125 14.015625 -33.796875 C 12.859375 -33.015625 12.28125 -31.925781 12.28125 -30.53125 C 12.28125 -29.257812 12.914062 -28.179688 14.1875 -27.296875 C 15.46875 -26.421875 17.703125 -25.601562 20.890625 -24.84375 C 26.117188 -23.601562 29.890625 -21.945312 32.203125 -19.875 C 34.523438 -17.800781 35.6875 -15.109375 35.6875 -11.796875 C 35.6875 -7.847656 34.257812 -4.753906 31.40625 -2.515625 C 28.550781 -0.273438 24.628906 0.84375 19.640625 0.84375 Z M 19.640625 0.84375 "/></g></g></g></svg>